<?xml version="1.0" encoding="UTF-8"?>
<svg version="1.1" width="800" height="800" viewBox="0 0 993 993" preserveAspectRatio="xMidYMid meet" xmlns="http://www.w3.org/2000/svg">
  <defs>
    <style type="text/css">
      .cls-1 { fill: url(#mixed-bg-shadow); }
      .cls-2 { fill: none; }
      .cls-3 { fill: url(#outer-glow); }
      .cls-4 { fill: #ffffff; opacity: 0.4; } /* 稍微降低白色遮罩透明度，让底色透出来 */
      .cls-5 { clip-path: url(#clip-path); }
      .cls-7 { clip-path: url(#clip-path-2); }
      .cls-8 { fill: url(#linear-mixed-bg); }
      .cls-9 { fill: url(#linear-mixed-icon); }
    </style>

    <linearGradient id="linear-mixed-bg" x1="0%" y1="0%" x2="100%" y2="100%">
      <stop offset="0%" stop-color="#BDB0B0" />   <stop offset="40%" stop-color="#E8D5D5" />  <stop offset="70%" stop-color="#D9C6C6" />  <stop offset="100%" stop-color="#E89C8F" /> </linearGradient>

    <linearGradient id="linear-mixed-icon" x1="100%" y1="0%" x2="0%" y2="100%">
      <stop offset="0%" stop-color="#FFFFFF" />
      <stop offset="100%" stop-color="#F1E0E0" />
    </linearGradient>

    <radialGradient id="mixed-bg-shadow" cx="512.06" cy="512.12" r="444.12" gradientUnits="userSpaceOnUse">
      <stop offset="0" stop-color="#A39494" stop-opacity=".3" />
      <stop offset="1" stop-opacity="0" />
    </radialGradient>

    <radialGradient id="outer-glow" cx="514.5" cy="516.5" r="496.5" gradientUnits="userSpaceOnUse">
      <stop offset="0.8" stop-color="#E89C8F" stop-opacity="0.2" />
      <stop offset="1" stop-opacity="0" />
    </radialGradient>

    <clipPath id="clip-path">
      <path d="m67.938 512.12c0 245.29 198.84 444.12 444.12 444.12s444.13-198.83 444.13-444.12c0-245.28-198.84-444.12-444.13-444.12s-444.12 198.84-444.12 444.12" transform="translate(-18 -20)"/>
    </clipPath>
    <clipPath id="clip-path-2">
      <path d="m71.603 512.12c0 243.26 197.2 440.46 440.46 440.46s440.46-197.19 440.46-440.46c0-243.26-197.2-440.46-440.46-440.46s-440.46 197.2-440.46 440.46" transform="translate(-18 -20)"/>
    </clipPath>
  </defs>

  <g shape-rendering="geometricPrecision">
    <path class="cls-3" d="M514.5,20C788.71,20,1011,242.29,1011,516.5S788.71,1013,514.5,1013,18,790.71,18,516.5,240.29,20,514.5,20" transform="translate(-18 -20)"/>
    <path class="cls-4" d="m512.06 25.849c268.56 0 486.27 217.71 486.27 486.27s-217.71 486.27-486.27 486.27-486.27-217.71-486.27-486.27 217.71-486.27 486.27-486.27" transform="translate(-18 -20)"/>
  </g>

  <g class="cls-7">
    <rect class="cls-8" x="53.603" y="51.665" width="880.92" height="880.91" shape-rendering="geometricPrecision" />
  </g>

  <path class="cls-9" d="m684.91 370.5a199.24 199.24 0 0 1-277.24 70.456 202.75 202.75 0 0 1-44.913-37.773 198.92 198.92 0 0 1-49.898-141.13c0.28-5.79 0.77-11.56 1.53-17.31s1.75-11.3 2.98-16.87q1.9-8.58 4.55-16.96t5.86-16.07c2.27-5.49 4.81-10.85 7.55-16.12s6.07-10.95 9.48-16.18q4.71-7.25 10.04-14.06c3.85-4.95 7.95-9.73 12.27-14.28q6.54-6.89 13.67-13.16c4.84-4.26 9.91-8.25 15.14-12.02q4.04-2.92 8.24-5.61a244.39 244.39 0 0 0-109.08 323.49q0.82 1.7 1.67 3.4 0.38 0.77 0.77 1.53a4.6 4.6 0 0 0 0.47 0.92c0.32 0.36 0.4 0.3 0.9 0.29 2.58-0.05 5.16-0.03 7.74 0.02q7.14 0.15 14.27 0.81a199.58 199.58 0 0 1 178.16 166.37 201.33 201.33 0 0 1 0.64 60.17 198.75 198.75 0 0 1-46.16 101.86 202.19 202.19 0 0 1-49.78 41.78 199.86 199.86 0 0 1-124.15 26.49 203.07 203.07 0 0 1-23.2-4.03c-4.95-1.16-9.86-2.53-14.71-4.07a242.6 242.6 0 0 0 68.55 18.97 247.04 247.04 0 0 0 66.41-0.8 243.53 243.53 0 0 0 108.67-44.89 246.04 246.04 0 0 0 59.73-63.07q1.04-1.59 2.06-3.19c0.26-0.41 0.85-1.07 0.77-1.51a8.49 8.49 0 0 0-1.05-1.94q-2-3.76-3.84-7.6-3.7-7.72-6.72-15.73a198.02 198.02 0 0 1-9.34-33.37 200.87 200.87 0 0 1 0.04-73.98 197.88 197.88 0 0 1 21.36-59.26 199.08 199.08 0 0 1 173.09-103.06q7.34-0.05 14.66 0.42 7.07 0.47 14.09 1.42t13.83 2.39q6.73 1.42 13.36 3.29t12.84 4.12q6.44 2.31 12.71 5.06t12.56 6.05 12.1 6.91c3.71 2.3 7.36 4.7 10.91 7.25q5.49 3.94 10.73 8.21c3.6 2.93 7.08 6.02 10.46 9.2q5.4 5.08 10.41 10.56t9.57 11.27c3.4 4.32 6.64 8.77 9.66 13.36s6.04 9.56 8.75 14.52a200.21 200.21 0 0 1 10.07 21.37 206.97 206.97 0 0 1 7.97 24.37 243.74 243.74 0 0 0-51.68-120.94 245.66 245.66 0 0 0-75.01-62.48 242.86 242.86 0 0 0-95.95-28.3q-4.27-0.34-8.54-0.53z" transform="translate(-18 -20)" shape-rendering="geometricPrecision" />
</svg>